<svg width="83" height="80" viewBox="0 0 83 80" fill="none" xmlns="http://www.w3.org/2000/svg">
<mask id="mask0_5_1557" style="mask-type:luminance" maskUnits="userSpaceOnUse" x="0" y="0" width="81" height="80">
<path d="M80.2256 0H0.225586V80H80.2256V0Z" fill="white"/>
</mask>
<g mask="url(#mask0_5_1557)">
<path d="M0.225586 0.00012207H80.0269V43.1865L76.0769 49.3737L80.0269 54.8802V80H0.225586V39.2885L2.69431 36.4425L0.225586 33.7202V0.00012207Z" fill="#016FD0"/>
<path d="M15.7168 55.746V43.1863H28.9824L30.4056 45.0463L31.8761 43.1863H80.0269V54.88C80.0269 54.88 78.7676 55.7335 77.3114 55.746H50.6491L49.0446 53.7663V55.746H43.7861V52.3663C43.7861 52.3663 43.0679 52.8383 41.5149 52.8383H39.7251V55.746H31.7634L30.3424 53.8463L28.8991 55.746H15.7168Z" fill="white"/>
<path d="M0.225586 33.7198L3.21703 26.7283H8.39043L10.0881 30.6445V26.7283H16.5191L17.5298 29.5588L18.5095 26.7283H47.3782V28.1513C47.3782 28.1513 48.8957 26.7283 51.3899 26.7283L60.7567 26.761L62.4249 30.626V26.7283H67.8067L69.2879 28.9485V26.7283H74.7192V39.2883H69.2879L67.8684 37.0608V39.2883H59.9614L59.1662 37.3083H57.0407L56.2584 39.2883H50.8962C48.7499 39.2883 47.3782 37.8943 47.3782 37.8943V39.2883H39.2932L37.6884 37.3083V39.2883H7.62403L6.82941 37.3083H4.71051L3.92151 39.2883H0.225586V33.7198Z" fill="white"/>
<path d="M4.27578 28.2765L0.240967 37.681H2.86783L3.6123 35.7977H7.94028L8.6809 37.681H11.3656L7.33468 28.2765H4.27578ZM5.76858 30.4652L7.0878 33.756H4.4455L5.76858 30.4652Z" fill="#016FD0"/>
<path d="M11.6436 37.6798V28.2753L15.3765 28.289L17.5477 34.3525L19.6669 28.2753H23.37V37.6798H21.0247V30.75L18.5386 37.6798H16.4818L13.9888 30.75V37.6798H11.6436Z" fill="#016FD0"/>
<path d="M24.9744 37.6798V28.2753H32.6273V30.3788H27.3443V31.9875H32.5038V33.9673H27.3443V35.6378H32.6273V37.6798H24.9744Z" fill="#016FD0"/>
<path d="M33.9851 28.2765V37.681H36.3304V34.34H37.3179L40.1299 37.681H42.9959L39.9101 34.2162C41.1766 34.109 42.4829 33.0195 42.4829 31.3275C42.4829 29.3485 40.9334 28.2765 39.2041 28.2765H33.9851ZM36.3304 30.3802H39.0114C39.6544 30.3802 40.1221 30.8845 40.1221 31.3702C40.1221 31.995 39.5161 32.36 39.0461 32.36H36.3304V30.3802Z" fill="#016FD0"/>
<path d="M45.8352 37.6798H43.4407V28.2753H45.8352V37.6798Z" fill="#016FD0"/>
<path d="M51.5131 37.6798H50.9961C48.4953 37.6798 46.9768 35.7045 46.9768 33.016C46.9768 30.2613 48.4783 28.2753 51.6366 28.2753H54.2286V30.5025H51.5416C50.2596 30.5025 49.3528 31.5055 49.3528 33.0393C49.3528 34.8605 50.3896 35.6255 51.8833 35.6255H52.5006L51.5131 37.6798Z" fill="#016FD0"/>
<path d="M56.6163 28.2765L52.5815 37.681H55.2083L55.9528 35.7977H60.2808L61.0215 37.681H63.706L59.6753 28.2765H56.6163ZM58.109 30.4652L59.4283 33.756H56.786L58.109 30.4652Z" fill="#016FD0"/>
<path d="M63.9805 37.6798V28.2753H66.9622L70.7695 34.184V28.2753H73.1147V37.6798H70.2295L66.3257 31.6163V37.6798H63.9805Z" fill="#016FD0"/>
<path d="M17.3215 54.1374V44.7329H24.9746V46.8367H19.6915V48.4452H24.8511V50.4252H19.6915V52.0957H24.9746V54.1374H17.3215Z" fill="#016FD0"/>
<path d="M54.8213 54.1374V44.7329H62.4743V46.8367H57.191V48.4452H62.326V50.4252H57.191V52.0957H62.4743V54.1374H54.8213Z" fill="#016FD0"/>
<path d="M25.2714 54.1374L28.9976 49.4932L25.1829 44.7329H28.1374L30.4094 47.6757L32.6891 44.7329H35.5281L31.7634 49.4352L35.4964 54.1374H32.5421L30.3361 51.2412L28.1839 54.1374H25.2714Z" fill="#016FD0"/>
<path d="M35.7751 44.7345V54.139H38.1821V51.1692H40.6509C42.7399 51.1692 44.3231 50.0582 44.3231 47.8977C44.3231 46.108 43.0814 44.7345 40.9556 44.7345H35.7751ZM38.1821 46.8612H40.7821C41.4569 46.8612 41.9394 47.276 41.9394 47.944C41.9394 48.5717 41.4594 49.0267 40.7744 49.0267H38.1821V46.8612Z" fill="#016FD0"/>
<path d="M45.3413 44.7329V54.1374H47.6866V50.7964H48.6741L51.4861 54.1374H54.3523L51.2663 50.6727C52.5328 50.5654 53.8391 49.4759 53.8391 47.7839C53.8391 45.8049 52.2898 44.7329 50.5603 44.7329H45.3413ZM47.6866 46.8367H50.3676C51.0106 46.8367 51.4786 47.3409 51.4786 47.8267C51.4786 48.4514 50.8723 48.8164 50.4023 48.8164H47.6866V46.8367Z" fill="#016FD0"/>
<path d="M63.5604 54.1374V52.0957H68.2542C68.9487 52.0957 69.2494 51.7194 69.2494 51.3069C69.2494 50.9114 68.9497 50.5117 68.2542 50.5117H66.1332C64.2894 50.5117 63.2627 49.3857 63.2627 47.6952C63.2627 46.1872 64.2029 44.7329 66.9427 44.7329H71.5097L70.5222 46.8489H66.5724C65.8172 46.8489 65.5849 47.2462 65.5849 47.6254C65.5849 48.0154 65.8722 48.4452 66.4489 48.4452H68.6707C70.7259 48.4452 71.6177 49.6139 71.6177 51.1444C71.6177 52.7899 70.6239 54.1374 68.5589 54.1374H63.5604Z" fill="#016FD0"/>
<path d="M72.1681 54.1374V52.0957H76.8619C77.5564 52.0957 77.8571 51.7194 77.8571 51.3069C77.8571 50.9114 77.5574 50.5117 76.8619 50.5117H74.7409C72.8971 50.5117 71.8704 49.3857 71.8704 47.6952C71.8704 46.1872 72.8106 44.7329 75.5504 44.7329H80.1176L79.1301 46.8489H75.1801C74.4251 46.8489 74.1926 47.2462 74.1926 47.6254C74.1926 48.0154 74.4799 48.4452 75.0566 48.4452H77.2784C79.3336 48.4452 80.2256 49.6139 80.2256 51.1444C80.2256 52.7899 79.2319 54.1374 77.1666 54.1374H72.1681Z" fill="#016FD0"/>
</g>
</svg>
