<svg width="214" height="80" viewBox="0 0 214 80" fill="none" xmlns="http://www.w3.org/2000/svg">
<path d="M93.4077 69.5677H78.1533L87.6943 10.6222H102.948L93.4077 69.5677Z" fill="#1434CB"/>
<path d="M148.706 12.0633C145.697 10.8706 140.925 9.55371 135.024 9.55371C119.96 9.55371 109.352 17.5799 109.287 29.055C109.162 37.5214 116.882 42.2237 122.656 45.0467C128.558 47.931 130.564 49.814 130.564 52.3854C130.504 56.334 125.795 58.1544 121.403 58.1544C115.313 58.1544 112.05 57.216 107.09 55.019L105.082 54.077L102.947 67.309C106.525 68.9377 113.116 70.383 119.96 70.4464C135.966 70.4464 146.386 62.5444 146.51 50.3157C146.57 43.6057 142.494 38.464 133.705 34.2624C128.37 31.5654 125.102 29.7468 125.102 26.9872C125.165 24.4785 127.866 21.9089 133.889 21.9089C138.848 21.7831 142.491 22.9741 145.252 24.1659L146.631 24.7919L148.706 12.0633Z" fill="#1434CB"/>
<path d="M168.98 48.6854C170.236 45.299 175.07 32.193 175.07 32.193C175.007 32.3188 176.324 28.7441 177.077 26.5496L178.143 31.6287C178.143 31.6287 181.032 45.7384 181.659 48.6854C179.275 48.6854 171.993 48.6854 168.98 48.6854ZM187.81 10.6222H176.01C172.372 10.6222 169.607 11.6873 168.038 15.5129L145.379 69.567H161.385C161.385 69.567 164.02 62.2917 164.587 60.7247C166.342 60.7247 181.913 60.7247 184.172 60.7247C184.61 62.7944 185.992 69.567 185.992 69.567H200.116L187.81 10.6222Z" fill="#1434CB"/>
<path d="M65.4126 10.6222L50.4736 50.8174L48.8409 42.6654C46.0792 33.2589 37.4172 23.0391 27.751 17.9575L41.4346 69.5054H57.5656L81.5426 10.6222H65.4126Z" fill="#1434CB"/>
<path d="M36.6014 10.6222H12.0589L11.8079 11.8132C30.9527 16.7048 43.6318 28.4957 48.8411 42.668L43.5058 15.5771C42.6274 11.8124 39.9281 10.7464 36.6014 10.6222Z" fill="#1434CB"/>
</svg>
