<svg width="132" height="80" viewBox="0 0 132 80" fill="none" xmlns="http://www.w3.org/2000/svg">
<path d="M46.7913 12.1444H81.2055V68.7045H46.7913V12.1444Z" fill="#FF5F00"/>
<path d="M50.3358 40.4294C50.3315 34.9831 51.5584 29.6074 53.9238 24.7087C56.2892 19.8101 59.7307 15.5171 63.9884 12.1545C58.715 7.98439 52.3824 5.39122 45.7138 4.67133C39.0455 3.95162 32.3101 5.13422 26.2779 8.08396C20.2458 11.0337 15.1599 15.6318 11.6019 21.3524C8.04384 27.0731 6.15698 33.6857 6.15698 40.4346C6.15698 47.1831 8.04384 53.7957 11.6019 59.5163C15.1599 65.2371 20.2458 69.8351 26.2779 72.7848C32.3101 75.7346 39.0455 76.9174 45.7138 76.1974C52.3824 75.4774 58.715 72.8846 63.9884 68.7143C59.7295 65.3508 56.287 61.056 53.9215 56.1557C51.5561 51.2551 50.3301 45.8774 50.3358 40.4294Z" fill="#EB001B"/>
<path d="M121.825 40.4295C121.825 47.1786 119.937 53.7918 116.379 59.5126C112.82 65.2335 107.733 69.8315 101.7 72.7806C95.6675 75.7301 88.9315 76.9118 82.2626 76.1912C75.5935 75.4701 69.2609 72.8758 63.988 68.7043C68.2438 65.3386 71.6846 61.0446 74.0506 56.1455C76.4163 51.2466 77.6458 45.8712 77.6458 40.4243C77.6458 34.9775 76.4163 29.602 74.0506 24.7032C71.6846 19.8043 68.2438 15.51 63.988 12.1444C69.2609 7.97293 75.5935 5.37853 82.2626 4.6577C88.9315 3.93676 95.6675 5.11856 101.7 8.06802C107.733 11.0174 112.82 15.6153 116.379 21.3362C119.937 27.0572 121.825 33.67 121.825 40.4195V40.4295Z" fill="#F79E1B"/>
</svg>
