<svg width="287" height="80" viewBox="0 0 287 80" fill="none" xmlns="http://www.w3.org/2000/svg">
<path fill-rule="evenodd" clip-rule="evenodd" d="M35.6064 22.5H53.4147C62.9764 22.5 66.5757 27.2627 66.0194 34.2597C65.1001 45.8113 58.0024 52.2023 48.5881 52.2023H43.8347C42.5431 52.2023 41.6744 53.0433 41.3251 55.323L39.3071 68.5753C39.1737 69.4347 38.7141 69.932 38.0244 70H26.8356C25.7829 70 25.4105 69.2083 25.6863 67.4943L32.5081 25.0102C32.7748 23.3096 33.7217 22.5 35.6064 22.5Z" fill="#009EE3"/>
<path fill-rule="evenodd" clip-rule="evenodd" d="M112.073 22.5C118.003 22.5 123.475 25.6563 122.726 33.5227C121.819 42.8713 116.714 48.044 108.661 48.0663H101.623C100.611 48.0663 100.121 48.8767 99.8579 50.537L98.4969 59.0267C98.2926 60.3087 97.6213 60.941 96.6319 60.941H90.0846C89.0409 60.941 88.6779 60.2863 88.9096 58.822L94.3133 24.7971C94.5813 23.1232 95.2209 22.5 96.3869 22.5H112.059H112.073ZM101.41 40.7167H106.741C110.076 40.592 112.29 38.326 112.513 34.2393C112.649 31.7151 110.911 29.9077 108.148 29.9211L103.13 29.9433L101.41 40.7167ZM140.526 58.3367C141.125 57.8023 141.733 57.5263 141.647 58.1853L141.434 59.761C141.325 60.5847 141.656 61.021 142.437 61.021H148.253C149.234 61.021 149.71 60.6337 149.95 59.1467L153.535 37.075C153.716 35.9667 153.44 35.4233 152.582 35.4233H146.184C145.608 35.4233 145.327 35.7397 145.177 36.603L144.941 37.961C144.819 38.6687 144.487 38.7933 144.179 38.081C143.094 35.5613 140.327 34.4307 136.465 34.5197C127.495 34.7023 121.447 41.3843 120.798 49.9497C120.299 56.5737 125.136 61.7777 131.515 61.7777C136.143 61.7777 138.212 60.4423 140.545 58.35L140.526 58.3367ZM135.653 54.94C131.792 54.94 129.101 51.9173 129.659 48.2133C130.218 44.5093 133.829 41.4867 137.691 41.4867C141.552 41.4867 144.242 44.5093 143.684 48.2133C143.126 51.9173 139.519 54.94 135.653 54.94ZM164.919 35.3523H159.021C157.805 35.3523 157.31 36.2427 157.696 37.3377L165.019 58.3767L157.836 68.3887C157.233 69.2257 157.7 69.9867 158.549 69.9867H165.178C165.564 70.0307 165.955 69.9647 166.304 69.7963C166.653 69.6283 166.946 69.3653 167.147 69.0387L189.67 37.342C190.365 36.3673 190.038 35.3433 188.899 35.3433H182.624C181.548 35.3433 181.117 35.7617 180.5 36.6387L171.108 49.994L166.911 36.6077C166.666 35.7973 166.053 35.3523 164.924 35.3523H164.919Z" fill="#113984"/>
<path fill-rule="evenodd" clip-rule="evenodd" d="M213.342 22.5091C219.293 22.5091 224.785 25.7227 224.034 33.7317C223.123 43.25 218 48.517 209.918 48.5397H202.859C201.844 48.5397 201.352 49.3647 201.088 51.0553L199.722 59.699C199.517 61.0043 198.843 61.648 197.85 61.648H191.28C190.232 61.648 189.868 60.9817 190.1 59.4903L195.533 24.8388C195.801 23.1346 196.443 22.5 197.614 22.5H213.342V22.5091ZM202.641 41.0563H207.991C211.338 40.9293 213.56 38.6223 213.784 34.4613C213.92 31.8915 212.176 30.0513 209.403 30.0649L204.367 30.0875L202.641 41.0563ZM241.898 58.9963C242.499 58.4523 243.109 58.1713 243.022 58.8423L242.808 60.4467C242.699 61.2853 243.031 61.7293 243.815 61.7293H249.652C250.636 61.7293 251.114 61.335 251.355 59.8213L254.953 37.3487C255.135 36.22 254.857 35.667 253.997 35.667H247.585C247.007 35.667 246.724 35.989 246.574 36.8683L246.337 38.2507C246.214 38.9713 245.882 39.0983 245.572 38.373C244.484 35.8077 241.706 34.6563 237.831 34.747C228.829 34.933 222.759 41.7363 222.108 50.457C221.607 57.2013 226.461 62.5 232.863 62.5C237.508 62.5 239.584 61.1403 241.925 59.01L241.898 58.9963ZM237.012 55.538C233.136 55.538 230.436 52.4603 230.996 48.6893C231.556 44.918 235.181 41.8407 239.056 41.8407C242.931 41.8407 245.632 44.918 245.071 48.6893C244.511 52.4603 240.887 55.538 237.012 55.538ZM263.937 61.7657H257.198C257.081 61.771 256.964 61.7503 256.855 61.7053C256.747 61.6603 256.65 61.5923 256.571 61.5057C256.493 61.419 256.434 61.316 256.4 61.2043C256.366 61.0927 256.357 60.9747 256.374 60.8593L262.293 23.5289C262.35 23.2741 262.491 23.0459 262.695 22.8813C262.898 22.7167 263.151 22.6255 263.413 22.6224H270.153C270.27 22.6172 270.387 22.6378 270.495 22.6828C270.604 22.7277 270.701 22.7959 270.779 22.8825C270.858 22.9691 270.917 23.072 270.951 23.1837C270.985 23.2955 270.994 23.4133 270.977 23.5289L265.057 60.8593C265.003 61.1157 264.862 61.346 264.658 61.5123C264.455 61.6787 264.2 61.7713 263.937 61.7747V61.7657Z" fill="#009EE3"/>
<path fill-rule="evenodd" clip-rule="evenodd" d="M24.5264 10H42.3147C47.3234 10 53.2681 10.158 57.2404 13.6107C59.8964 15.917 61.2907 19.5864 60.9697 23.5401C59.8781 36.9043 51.7544 44.392 40.8561 44.392H32.0857C30.5903 44.392 29.6041 45.3667 29.1821 48.0027L26.7327 63.348C26.5722 64.341 26.1364 64.9277 25.3566 65H14.3801C13.1645 65 12.7333 64.0973 13.0498 62.1023L20.9394 12.9156C21.2559 10.9388 22.3613 10 24.5264 10Z" fill="#113984"/>
<path fill-rule="evenodd" clip-rule="evenodd" d="M30.658 45L33.684 25.0831C33.9477 23.3363 34.8683 22.5 36.7007 22.5H54.0157C56.8807 22.5 59.2003 22.9646 61.015 23.8241C59.2763 36.0707 51.656 42.8723 41.68 42.8723H33.1475C32.0033 42.8767 31.163 43.4717 30.658 45Z" fill="#172C70"/>
</svg>
